<svg xmlns="http://www.w3.org/2000/svg" viewBox="0 0 269.57 61.79"><defs><style>.cls-1{fill:#f7f5eb;}.cls-2{fill:#f4971e;}</style></defs><g id="Calque_2" data-name="Calque 2"><g id="Calque_1-2" data-name="Calque 1"><polygon class="cls-1" points="25.51 51.11 25.51 51.11 31.5 60.6 49.41 60.6 35.37 39.83 56.61 12.85 38.85 12.85 18.16 39.76 25.51 51.11"/><path class="cls-1" d="M54.62,36.72A26.6,26.6,0,0,1,56.4,27a23.23,23.23,0,0,1,13-13.38,26.72,26.72,0,0,1,10.51-2,22,22,0,0,1,8.42,1.53,25.23,25.23,0,0,1,6.32,3.61l.59-3.64h12V60.29h-12l-.64-3.6a25.77,25.77,0,0,1-6.34,3.6,22.34,22.34,0,0,1-8.35,1.5,26.66,26.66,0,0,1-10.47-2,24.08,24.08,0,0,1-8-5.37,23.35,23.35,0,0,1-5.07-8,26.63,26.63,0,0,1-1.78-9.76m14.06,0a13.85,13.85,0,0,0,1,5.37,12.77,12.77,0,0,0,2.71,4.14,11.73,11.73,0,0,0,4,2.66,13.19,13.19,0,0,0,9.78,0,12,12,0,0,0,4-2.64,12.14,12.14,0,0,0,2.68-4.14,14.37,14.37,0,0,0,1-5.39,13.53,13.53,0,0,0-1-5.3,12.54,12.54,0,0,0-2.71-4.09,11.92,11.92,0,0,0-4-2.64,12.9,12.9,0,0,0-4.89-.93,13,13,0,0,0-4.94.93,11.64,11.64,0,0,0-4,2.64,12.42,12.42,0,0,0-2.66,4.09,13.71,13.71,0,0,0-1,5.3"/><path class="cls-1" d="M168.13,60.29H154v-25a18.88,18.88,0,0,0-.69-5.51,9.12,9.12,0,0,0-1.91-3.57,7,7,0,0,0-2.93-1.93,11.26,11.26,0,0,0-3.75-.59,11,11,0,0,0-4.69,1,10.59,10.59,0,0,0-3.57,2.69,11.5,11.5,0,0,0-2.25,4.07,16.34,16.34,0,0,0-.78,5.14V60.29H119.35V13.1h11.33l.87,3.6a26.13,26.13,0,0,1,3.23-2,27.8,27.8,0,0,1,3.73-1.62,31.29,31.29,0,0,1,4-1.09,21.93,21.93,0,0,1,4.21-.41,26.07,26.07,0,0,1,9.69,1.62,16.67,16.67,0,0,1,6.65,4.64,19.2,19.2,0,0,1,3.82,7.35A35.74,35.74,0,0,1,168.13,35Z"/><path class="cls-1" d="M184.17.09,194.27,0V13.1H208V25.16h-13.7V41.72a10.65,10.65,0,0,0,.53,3.62,5.68,5.68,0,0,0,1.41,2.27,4.61,4.61,0,0,0,2.11,1.16,10.16,10.16,0,0,0,2.64.32h7.87l-.09,11.51H199.6a38.18,38.18,0,0,1-7.49-.7A14.69,14.69,0,0,1,186,57.17a13.57,13.57,0,0,1-4.17-5.69,25.53,25.53,0,0,1-1.52-9.62V25.16h-7.51V14.42l7.15-2.73Z"/><path class="cls-1" d="M217,36.72A26.8,26.8,0,0,1,218.75,27a23.93,23.93,0,0,1,5.05-8,23.69,23.69,0,0,1,8-5.39,26.79,26.79,0,0,1,10.51-2,22,22,0,0,1,8.42,1.53A25.05,25.05,0,0,1,257,16.74l.6-3.64h12V60.29h-12l-.64-3.6a25.84,25.84,0,0,1-6.35,3.6,22.27,22.27,0,0,1-8.35,1.5,26.61,26.61,0,0,1-10.46-2,24,24,0,0,1-8-5.37,23.35,23.35,0,0,1-5.07-8A26.84,26.84,0,0,1,217,36.72m14.05,0A13.85,13.85,0,0,0,232,42a12.74,12.74,0,0,0,2.7,4.14,11.83,11.83,0,0,0,4,2.66,13.22,13.22,0,0,0,9.79,0,11.92,11.92,0,0,0,4-2.64,12.16,12.16,0,0,0,2.69-4.14,14.37,14.37,0,0,0,1-5.39,13.53,13.53,0,0,0-1-5.3,12.52,12.52,0,0,0-2.7-4.09,12,12,0,0,0-4-2.64,13.43,13.43,0,0,0-9.82,0,11.68,11.68,0,0,0-4,2.64A12.42,12.42,0,0,0,232,31.37a13.9,13.9,0,0,0-1,5.3"/><rect class="cls-2" width="15.15" height="60.29"/></g></g></svg>